<?xml version="1.0" encoding="utf-8"?>
<!-- Generator: Adobe Illustrator 17.0.0, SVG Export Plug-In . SVG Version: 6.00 Build 0)  -->
<!DOCTYPE svg PUBLIC "-//W3C//DTD SVG 1.1//EN" "http://www.w3.org/Graphics/SVG/1.1/DTD/svg11.dtd">
<svg version="1.1" id="Layer_1" xmlns="http://www.w3.org/2000/svg" xmlns:xlink="http://www.w3.org/1999/xlink" x="0px" y="0px"
	 width="332px" height="100.5px" viewBox="0 0 332 100.5" enable-background="new 0 0 332 100.5" xml:space="preserve">
<g>
	<path fill="none" d="M259.466,79.513c-0.573-0.499-1.249-0.866-2.029-1.102c-0.779-0.236-1.627-0.352-2.54-0.347l-3.595,0.018
		l0.061,12.401l3.595-0.018c0.913-0.004,1.759-0.128,2.536-0.372c0.778-0.243,1.45-0.617,2.017-1.122
		c0.567-0.504,1.013-1.146,1.338-1.926c0.327-0.782,0.487-1.718,0.482-2.812c-0.006-1.093-0.175-2.028-0.509-2.806
		C260.489,80.65,260.037,80.012,259.466,79.513z"/>
	<path fill="none" d="M265.929,22.311c-3.07,0-5.695,1.09-7.875,3.27c-2.156,2.179-3.234,4.804-3.234,7.875v11.109h11.109
		c3.071,0,5.696-1.09,7.875-3.27c2.157-2.156,3.235-4.768,3.235-7.839c0-3.071-1.078-5.696-3.235-7.875
		C271.625,23.401,269,22.311,265.929,22.311z"/>
	<path fill="none" d="M222.793,36.83c-3.516,0-6.516,1.243-9,3.727c-2.461,2.484-3.691,5.484-3.691,9
		c0,3.493,1.23,6.481,3.691,8.964c2.484,2.485,5.484,3.727,9,3.727c3.516,0,6.504-1.242,8.965-3.727
		c2.484-2.483,3.726-5.471,3.726-8.964c0-3.516-1.242-6.516-3.726-9C229.297,38.073,226.309,36.83,222.793,36.83z"/>
	<path fill="none" d="M126.359,36.83c-3.516,0-6.516,1.243-9,3.727c-2.461,2.484-3.691,5.484-3.691,9
		c0,3.493,1.23,6.481,3.691,8.964c2.484,2.485,5.484,3.727,9,3.727s6.504-1.242,8.965-3.727c2.484-2.483,3.726-5.471,3.726-8.964
		c0-3.516-1.242-6.516-3.726-9C132.863,38.073,129.875,36.83,126.359,36.83z"/>
	<path fill="none" d="M60.217,36.998c0,0.273,0.097,0.503,0.291,0.69c0.194,0.194,0.424,0.291,0.69,0.291h0.032
		c0.266,0,0.496-0.097,0.69-0.291c0.194-0.187,0.291-0.417,0.291-0.69v-3.266c0-1.789-0.726-3.208-2.177-4.257
		c1.451-1.05,2.177-2.469,2.177-4.258V22.77c0-0.273-0.097-0.506-0.291-0.7c-0.194-0.187-0.424-0.281-0.69-0.281h-0.032
		c-0.266,0-0.496,0.094-0.69,0.281c-0.194,0.194-0.291,0.427-0.291,0.7v2.447c0,0.898-0.316,1.667-0.949,2.307
		c-0.639,0.639-1.412,0.959-2.317,0.959c-0.898,0-1.667-0.32-2.307-0.959c-0.632-0.64-0.948-1.409-0.948-2.307V22.77
		c0-0.273-0.097-0.506-0.291-0.7c-0.194-0.187-0.424-0.281-0.69-0.281h-0.032c-0.266,0-0.496,0.094-0.69,0.281
		c-0.194,0.194-0.291,0.427-0.291,0.7v2.447c0,1.789,0.726,3.208,2.177,4.258c-1.451,1.049-2.177,2.468-2.177,4.257v3.266
		c0,0.273,0.097,0.503,0.291,0.69c0.194,0.194,0.424,0.291,0.69,0.291h0.032c0.266,0,0.496-0.097,0.69-0.291
		c0.194-0.187,0.291-0.417,0.291-0.69v-3.266c0-0.898,0.316-1.667,0.948-2.307c0.64-0.639,1.409-0.959,2.307-0.959
		c0.905,0,1.678,0.32,2.317,0.959c0.633,0.64,0.949,1.409,0.949,2.307V36.998z"/>
	<polygon fill="none" points="312.325,78.457 309.06,86.292 315.554,86.261 312.37,78.457 	"/>
	<path fill="#FFFFFF" d="M262.005,79.568c-0.408-0.59-0.878-1.092-1.413-1.509c-0.534-0.417-1.089-0.755-1.667-1.014
		c-0.578-0.259-1.159-0.448-1.744-0.565c-0.585-0.116-1.139-0.174-1.664-0.172l-6.11,0.03l0.077,15.907l6.11-0.031
		c0.525-0.002,1.08-0.064,1.663-0.187c0.584-0.122,1.163-0.316,1.738-0.581c0.575-0.265,1.128-0.609,1.658-1.03
		c0.529-0.422,0.995-0.93,1.397-1.524c0.401-0.594,0.72-1.276,0.956-2.05c0.236-0.772,0.351-1.644,0.346-2.619
		c-0.005-0.972-0.129-1.844-0.372-2.615C262.737,80.837,262.412,80.158,262.005,79.568z M260.849,87.045
		c-0.325,0.78-0.771,1.422-1.338,1.926c-0.567,0.505-1.239,0.879-2.017,1.122c-0.777,0.244-1.623,0.368-2.536,0.372l-3.595,0.018
		l-0.061-12.401l3.595-0.018c0.913-0.005,1.761,0.111,2.54,0.347c0.78,0.236,1.456,0.603,2.029,1.102
		c0.571,0.499,1.023,1.137,1.356,1.914c0.334,0.778,0.503,1.713,0.509,2.806C261.336,85.327,261.176,86.263,260.849,87.045z"/>
	
		<rect x="259.376" y="83.26" transform="matrix(-0.0049 -1 1 -0.0049 184.437 351.9421)" fill="#FFFFFF" width="15.906" height="1.887"/>
	<path fill="#FFFFFF" d="M280.198,83.198l0.009,1.753l3.662-0.019l0.023,4.876c-0.583,0.303-1.225,0.534-1.928,0.695
		s-1.377,0.242-2.022,0.246c-0.973,0.004-1.865-0.156-2.675-0.482c-0.811-0.325-1.505-0.783-2.085-1.372
		c-0.58-0.588-1.033-1.287-1.358-2.093c-0.326-0.807-0.491-1.683-0.496-2.627c-0.005-0.958,0.151-1.843,0.47-2.654
		c0.318-0.809,0.764-1.508,1.338-2.095c0.574-0.587,1.25-1.046,2.027-1.38c0.777-0.333,1.622-0.502,2.536-0.507
		c0.809-0.004,1.599,0.15,2.373,0.461c0.772,0.31,1.43,0.756,1.972,1.338l1.408-1.49c-0.768-0.759-1.636-1.295-2.604-1.605
		c-0.966-0.31-1.975-0.462-3.023-0.457c-1.198,0.006-2.313,0.214-3.345,0.623c-1.031,0.409-1.934,0.98-2.71,1.71
		c-0.775,0.729-1.381,1.608-1.818,2.637c-0.437,1.028-0.652,2.171-0.646,3.428c0.006,1.245,0.221,2.378,0.646,3.402
		c0.424,1.024,1.017,1.901,1.776,2.632c0.76,0.729,1.658,1.295,2.693,1.694c1.036,0.399,2.175,0.596,3.418,0.59
		c1.034-0.006,2.055-0.131,3.064-0.375c1.011-0.244,1.971-0.623,2.882-1.138l-0.038-7.818L280.198,83.198z"/>
	
		<rect x="282.696" y="83.147" transform="matrix(-0.0049 -1 1 -0.0049 207.985 375.1483)" fill="#FFFFFF" width="15.906" height="1.887"/>
	<polygon fill="#FFFFFF" points="306.189,77.815 306.18,76.062 293.778,76.123 293.787,77.875 299.044,77.849 299.113,92.003 
		301.001,91.994 300.931,77.84 	"/>
	<path fill="#FFFFFF" d="M311.505,76.035l-6.933,15.941l2.135-0.01l1.621-3.917l7.953-0.039l1.637,3.901l2.201-0.011l-6.839-15.873
		L311.505,76.035z M309.06,86.292l3.265-7.835h0.045l3.184,7.804L309.06,86.292z"/>
	<polygon fill="#FFFFFF" points="331.388,90.093 324.109,90.13 324.041,75.975 322.154,75.984 322.231,91.89 331.397,91.846 	"/>
	<path fill="#FFFFFF" d="M142.406,38.782c-4.964-6.754-11.585-9.498-19.863-8.223c-2.471,0.381-4.831,1.361-6.846,2.84
		c-6.762,4.964-9.505,11.59-8.23,19.867c0.381,2.47,1.36,4.829,2.838,6.844c4.963,6.763,11.587,9.507,19.866,8.234
		c2.468-0.38,4.826-1.358,6.839-2.834c6.77-4.963,9.517-11.592,8.241-19.877C144.869,43.16,143.889,40.798,142.406,38.782z
		 M135.324,58.521c-2.461,2.485-5.449,3.727-8.965,3.727s-6.516-1.242-9-3.727c-2.461-2.483-3.691-5.471-3.691-8.964
		c0-3.516,1.23-6.516,3.691-9c2.484-2.484,5.484-3.727,9-3.727s6.504,1.243,8.965,3.727c2.484,2.484,3.726,5.484,3.726,9
		C139.05,53.05,137.808,56.038,135.324,58.521z"/>
	<path fill="#FFFFFF" d="M175.472,31.17c-1.875-0.609-3.809-0.914-5.801-0.914c-6.485,0-11.81,2.812-15.976,8.43
		c-1.523,2.053-2.536,4.461-2.921,6.987c-1.226,8.03,1.333,14.502,7.676,19.408c1.876,1.451,4.055,2.497,6.371,3.013
		c3.738,0.833,7.289,0.724,10.651-0.326c1.5-0.493,2.25-1.512,2.25-3.059c0-1.101-0.434-1.969-1.301-2.602
		c-0.89-0.632-1.851-0.785-2.883-0.457c-1.242,0.4-2.531,0.598-3.867,0.598c-3.515,0-6.515-1.242-9-3.726
		c-2.461-2.484-3.691-5.472-3.691-8.965c0-3.516,1.23-6.516,3.691-9c2.485-2.484,5.485-3.727,9-3.727
		c1.336,0,2.625,0.211,3.867,0.633c1.555,0.496,2.949-0.13,4.184-1.869v-1.365C177.722,32.659,176.972,31.64,175.472,31.17z"/>
	<path fill="#FFFFFF" d="M196.53,30.256h-6.328V19.041c0-0.89-0.316-1.652-0.949-2.285c-0.633-0.609-1.383-0.914-2.25-0.914h-0.105
		c-0.868,0-1.618,0.305-2.25,0.914c-0.633,0.633-0.95,1.395-0.95,2.285v39.621c0,2.743,0.973,5.098,2.918,7.067
		c1.969,1.946,4.336,2.918,7.102,2.918h2.812c0.868,0,1.618-0.317,2.25-0.95c0.633-0.609,0.95-1.358,0.95-2.25v-1.001
		c-0.782-1.536-1.849-2.303-3.2-2.303h-2.812c-1.545,0-2.714-0.835-3.509-2.515c-0.004-0.009-0.007-0.02-0.007-0.03V36.76h6.328
		c0.868,0,1.618-0.316,2.25-0.949c0.633-0.61,0.95-1.359,0.95-2.25v-1.002C198.948,31.024,197.881,30.256,196.53,30.256z"/>
	<path fill="#FFFFFF" d="M238.84,38.782c-4.964-6.754-11.585-9.498-19.863-8.223c-2.471,0.381-4.831,1.361-6.846,2.84
		c-6.762,4.965-9.505,11.591-8.23,19.869c0.381,2.472,1.362,4.832,2.842,6.848c4.964,6.758,11.585,9.501,19.862,8.228
		c2.468-0.38,4.825-1.357,6.839-2.834c6.77-4.963,9.517-11.592,8.241-19.877C241.302,43.16,240.323,40.798,238.84,38.782z
		 M231.758,58.521c-2.461,2.485-5.449,3.727-8.965,3.727c-3.516,0-6.516-1.242-9-3.727c-2.461-2.483-3.691-5.471-3.691-8.964
		c0-3.516,1.23-6.516,3.691-9c2.484-2.484,5.484-3.727,9-3.727c3.516,0,6.504,1.243,8.965,3.727c2.484,2.484,3.726,5.484,3.726,9
		C235.484,53.05,234.242,56.038,231.758,58.521z"/>
	<path fill="#FFFFFF" d="M283.248,29.86c-0.349-2.2-1.216-4.3-2.521-6.105c-3.812-5.275-8.745-7.913-14.798-7.913
		c-4.851,0-9,1.711-12.445,5.133c-3.445,3.445-5.168,7.607-5.168,12.481v31.992c0,0.891,0.317,1.64,0.949,2.25
		c0.633,0.633,1.383,0.949,2.25,0.949h0.106c0.867,0,1.617-0.316,2.25-0.949c0.633-0.61,0.949-1.359,0.949-2.25V51.069h11.109
		c4.875,0,9.024-1.723,12.446-5.168C282.643,41.633,284.267,36.286,283.248,29.86z M273.804,41.295
		c-2.179,2.18-4.804,3.27-7.875,3.27H254.82V33.456c0-3.071,1.078-5.696,3.234-7.875c2.18-2.18,4.805-3.27,7.875-3.27
		c3.071,0,5.696,1.09,7.875,3.27c2.157,2.179,3.235,4.804,3.235,7.875C277.039,36.527,275.961,39.139,273.804,41.295z"/>
	<path fill="#FFFFFF" d="M323.796,65.448V54.796c0-5.836-2.367-10.464-7.102-13.887c4.735-3.422,7.102-8.051,7.102-13.887v-7.98
		c0-0.891-0.316-1.653-0.949-2.285c-0.633-0.61-1.383-0.914-2.25-0.914h-0.106c-0.867,0-1.617,0.304-2.25,0.914
		c-0.632,0.632-0.949,1.394-0.949,2.285v7.98c0,2.931-1.031,5.438-3.094,7.524c-2.086,2.087-4.605,3.129-7.558,3.129
		c-2.93,0-5.438-1.042-7.524-3.129c-2.062-2.086-3.093-4.593-3.093-7.524v-7.98c0-0.891-0.317-1.653-0.95-2.285
		c-0.632-0.61-1.382-0.914-2.25-0.914h-0.105c-0.867,0-1.617,0.304-2.25,0.914c-0.633,0.632-0.949,1.394-0.949,2.285v7.98
		c0,5.836,2.367,10.465,7.101,13.887c-4.734,3.423-7.101,8.051-7.101,13.887v10.652c0,0.892,0.316,1.641,0.949,2.25
		c0.633,0.633,1.383,0.949,2.25,0.949h0.105c0.868,0,1.618-0.316,2.25-0.949c0.633-0.609,0.95-1.358,0.95-2.25V54.796
		c0-2.93,1.031-5.437,3.093-7.524c2.086-2.086,4.594-3.129,7.524-3.129c2.953,0,5.472,1.043,7.558,3.129
		c2.063,2.087,3.094,4.594,3.094,7.524v10.652c0,0.892,0.317,1.641,0.949,2.25c0.633,0.633,1.383,0.949,2.25,0.949h0.106
		c0.867,0,1.617-0.316,2.25-0.949C323.48,67.089,323.796,66.34,323.796,65.448z"/>
	<path fill="#FFFFFF" d="M43.469,23.772c-0.941,0-1.746,0.334-2.414,1.003c-0.661,0.668-0.992,1.473-0.992,2.414v3.406h3.406
		c0.941,0,1.746-0.334,2.414-1.002c0.662-0.661,0.992-1.462,0.992-2.404c0-0.941-0.33-1.746-0.992-2.414
		C45.215,24.107,44.41,23.772,43.469,23.772z"/>
	<path fill="#FFFFFF" d="M50.195,0.33C22.67,0.33,0.356,22.644,0.356,50.169c0,27.526,22.314,49.839,49.839,49.839
		c27.525,0,49.839-22.313,49.839-49.839C100.034,22.644,77.72,0.33,50.195,0.33z M64.784,16.387
		c1.047,1.365,2.388,2.979,4.026,4.844c2.865,3.366,5.071,7.118,6.617,11.257c2.138,5.822,2.252,10.734,0.342,14.737
		c-0.865,1.865-2.206,3.502-4.026,4.912c-2.092,1.546-4.025,2.57-5.799,3.07c-1.819,0.455-3.32,0.341-4.503-0.341
		c-1.364-0.773-1.796-2.047-1.296-3.821c0.137-0.546,1.001-2.319,2.593-5.321c0.909-1.683,1.774-3.48,2.592-5.39
		c2.138-4.958,2.979-9.256,2.525-12.894c-0.683-5.731-4.435-9.87-11.257-12.417c-2.411-0.91-4.594-1.365-6.55-1.365
		c-2.001,0-4.366,0.523-7.095,1.569c-7.505,2.911-11.03,8.005-10.575,15.283c0.227,4.093,2.024,9.369,5.39,15.828
		c1.501,2.82,2.274,4.366,2.319,4.639c0.41,1.546,0.159,2.706-0.75,3.48c-0.864,0.818-2.161,1.137-3.889,0.955
		c-1.683-0.137-3.684-1.001-6.004-2.593c-4.048-2.774-6.163-6.458-6.345-11.052c-0.091-2.274,0.251-4.776,1.024-7.505
		c1.273-4.275,3.229-8.096,5.867-11.462c0.455-0.5,1.137-1.273,2.047-2.319c0.909-1.001,1.569-1.774,1.978-2.32
		c2.002-2.547,3.207-4.207,3.616-4.98c0.91-1.774,1.069-3.434,0.478-4.981c-0.046-0.045-0.614-0.818-1.706-2.319
		c3.775-1.319,8.346-1.979,13.713-1.979c5.322,0,9.87,0.66,13.645,1.979l-0.75,0.955c-0.91,1.046-1.319,2.228-1.228,3.548
		C61.874,11.793,62.874,13.795,64.784,16.387z M51.702,25.217V22.77c0-0.273,0.097-0.506,0.291-0.7
		c0.194-0.187,0.424-0.281,0.69-0.281h0.032c0.266,0,0.496,0.094,0.69,0.281c0.194,0.194,0.291,0.427,0.291,0.7v2.447
		c0,0.898,0.316,1.667,0.948,2.307c0.64,0.639,1.409,0.959,2.307,0.959c0.905,0,1.678-0.32,2.317-0.959
		c0.633-0.64,0.949-1.409,0.949-2.307V22.77c0-0.273,0.097-0.506,0.291-0.7c0.194-0.187,0.424-0.281,0.69-0.281h0.032
		c0.266,0,0.496,0.094,0.69,0.281c0.194,0.194,0.291,0.427,0.291,0.7v2.447c0,1.789-0.726,3.208-2.177,4.258
		c1.451,1.049,2.177,2.468,2.177,4.257v3.266c0,0.273-0.097,0.503-0.291,0.69c-0.194,0.194-0.424,0.291-0.69,0.291h-0.032
		c-0.266,0-0.496-0.097-0.69-0.291c-0.194-0.187-0.291-0.417-0.291-0.69v-3.266c0-0.898-0.316-1.667-0.949-2.307
		c-0.639-0.639-1.412-0.959-2.317-0.959c-0.898,0-1.667,0.32-2.307,0.959c-0.632,0.64-0.948,1.409-0.948,2.307v3.266
		c0,0.273-0.097,0.503-0.291,0.69c-0.194,0.194-0.424,0.291-0.69,0.291h-0.032c-0.266,0-0.496-0.097-0.69-0.291
		c-0.194-0.187-0.291-0.417-0.291-0.69v-3.266c0-1.789,0.726-3.208,2.177-4.257C52.428,28.425,51.702,27.006,51.702,25.217z
		 M43.469,32.589h-3.406v4.408c0,0.274-0.097,0.503-0.291,0.69c-0.194,0.194-0.424,0.291-0.69,0.291H39.05
		c-0.266,0-0.496-0.097-0.69-0.291c-0.194-0.187-0.291-0.416-0.291-0.69V27.19c0-1.494,0.528-2.77,1.584-3.826
		c1.057-1.05,2.329-1.574,3.816-1.574c1.495,0,2.767,0.524,3.816,1.574c1.056,1.056,1.584,2.332,1.584,3.826
		c0,1.487-0.528,2.759-1.584,3.816C46.236,32.061,44.964,32.589,43.469,32.589z M43.84,68.647c0,3.548-1.956,6.118-5.868,7.71
		c-0.545,0.227-1.364,0.5-2.456,0.818c-1.091,0.319-1.887,0.569-2.388,0.751c-0.492,0.198-0.939,0.407-1.352,0.623
		c-2.289-1.188-4.446-2.591-6.448-4.184c0.193,0.071,0.341,0.122,0.432,0.148c2.274,0.819,4.344,1.229,6.209,1.229
		c2.592,0,5.003-0.705,7.231-2.115c2.093-1.319,3.616-3.002,4.571-5.049C43.817,68.579,43.84,68.602,43.84,68.647z M33.807,6.883
		c0.231-0.08,0.454-0.176,0.687-0.252c0.955,0.501,1.478,1.433,1.569,2.797c0.091,1.274-0.182,2.434-0.819,3.48
		c-0.273,0.409-1.159,1.387-2.66,2.933c-4.867,5.004-7.573,7.869-8.119,8.597c-3.866,5.003-5.799,10.484-5.799,16.442
		c0,4.275,1.046,8.096,3.138,11.462c1.956,3.183,4.594,5.571,7.914,7.163c2.365,1.092,5.071,1.66,8.119,1.706
		c0.091,0.091-0.137,0.273-0.682,0.546c-2.593,1.319-5.413,1.819-8.46,1.5c-3.411-0.363-5.981-1.682-7.71-3.957
		c-1.364-1.773-2.638-4.366-3.82-7.777c-1.592-4.639-3.343-7.346-5.253-8.119c-0.535-0.228-1.077-0.387-1.623-0.498
		C10.408,26.852,20.029,13.068,33.807,6.883z M10.751,45.246c1.091,0.728,1.955,2.07,2.592,4.025
		c0.182,0.683,0.41,1.592,0.683,2.729c0.363,1.501,0.568,2.411,0.614,2.729c1.046,4.048,2.478,7.073,4.298,9.074
		c2.41,2.593,5.298,4.139,8.664,4.639c3.275,0.455,7.05-0.113,11.325-1.705c-0.955,2.365-2.91,3.752-5.867,4.162
		c-1.728,0.272-4.048-0.046-6.959-0.956c-2.586-0.806-4.76-1.199-6.566-1.225c-5.415-6.478-8.807-14.703-9.209-23.707
		C10.469,45.087,10.613,45.155,10.751,45.246z M38.655,80.314c4.775-1.138,8.095-3.639,9.96-7.505
		c0.637-1.365,1.115-3.116,1.433-5.253c1.228,7.277,5.39,11.62,12.485,13.03c0.103,0,0.415,0.04,0.932,0.117
		c-4.182,1.492-8.684,2.311-13.378,2.311c-4.725,0-9.255-0.828-13.46-2.339C37.848,80.476,38.528,80.356,38.655,80.314z
		 M68.059,78.335c0.182,0.091-1.637-0.523-5.458-1.842c-2.137-0.728-3.82-1.933-5.048-3.616c-0.728-1.001-1.16-2.32-1.297-3.957
		c0-0.182,0.046-0.273,0.137-0.273c2.865,4.73,6.777,7.096,11.735,7.096c1.955,0,4.002-0.387,6.14-1.16
		c0.139-0.042,0.333-0.113,0.553-0.197c-1.98,1.573-4.113,2.961-6.374,4.139C68.319,78.461,68.196,78.395,68.059,78.335z
		 M76.178,69.398c-0.455,0.136-1.16,0.364-2.115,0.682c-0.91,0.273-1.637,0.477-2.183,0.614c-2.32,0.546-4.48,0.455-6.481-0.273
		c-2.047-0.728-3.434-1.933-4.162-3.616c4.457,1.456,8.119,2.001,10.984,1.637c3.593-0.454,6.504-1.887,8.733-4.298
		c1.864-2.001,3.32-4.889,4.366-8.664c0.136-0.455,0.409-1.615,0.819-3.48c0.318-1.501,0.637-2.66,0.955-3.479
		c0.626-1.689,1.548-2.826,2.754-3.44c-0.417,8.994-3.819,17.205-9.237,23.672C79.323,68.776,77.853,68.983,76.178,69.398z
		 M87.776,43.677c-1.455,0.819-2.661,2.342-3.616,4.571c-0.273,0.637-0.637,1.637-1.091,3.002c-0.501,1.41-0.865,2.433-1.092,3.07
		c-1.274,3.002-2.502,5.049-3.684,6.14c-1.956,1.774-4.526,2.729-7.709,2.866c-2.775,0.136-5.595-0.546-8.46-2.047
		c6.231-0.182,11.098-2.433,14.6-6.754c3.82-4.685,5.367-10.188,4.639-16.511c-0.546-4.32-1.978-8.232-4.298-11.734
		c-1.365-2.001-3.866-4.821-7.505-8.46c-2.911-2.911-4.571-4.798-4.98-5.663c-0.501-1-0.637-2.024-0.41-3.07
		c0.182-1.091,0.66-1.887,1.433-2.388l0.137-0.068c0.018-0.009,0.027-0.008,0.041-0.014c14.102,6.057,23.999,20.024,24.107,36.32
		C89.106,43.066,88.397,43.305,87.776,43.677z"/>
</g>
</svg>
